<svg xmlns="http://www.w3.org/2000/svg" viewBox="0 0 64 64">
  <defs>
    <linearGradient id="g" x1="0%" x2="100%" y1="0%" y2="100%">
      <stop offset="0%" stop-color="#a855f7" />
      <stop offset="100%" stop-color="#ec4899" />
    </linearGradient>
  </defs>
  <rect width="64" height="64" rx="18" fill="#09090b" />
  <rect x="8" y="8" width="48" height="48" rx="14" fill="url(#g)" />
  <path
    d="M32 17l3.2 8.8L44 29l-8.8 3.2L32 41l-3.2-8.8L20 29l8.8-3.2L32 17zm12.5 22l1.5 4.1 4.1 1.5-4.1 1.5-1.5 4.1-1.5-4.1-4.1-1.5 4.1-1.5 1.5-4.1zM18.5 37l1.3 3.6 3.6 1.3-3.6 1.3-1.3 3.6-1.3-3.6-3.6-1.3 3.6-1.3 1.3-3.6z"
    fill="#fff"
  />
</svg>
